# xmcd
#
# Track frame offsets:
#	150
#	9582
#	23352
#	37577
#	48680
#	60262
#	71682
#	80827
#	92295
#	105282
#	116760
#	127707
#	145355
#	157602
#	169727
#	179872
#	191095
#	200847
#	210812
#	228417
#	243890
#	258747
#	273255
#	286810
#	295327
#	304730
#	315667
#	328465
#
# Disc length: 4482 seconds
#
# Revision: 1
# Processed by: cddbd v1.5.1PL2 Copyright (c) Steve Scherf et al.
# Submitted via: audiograbber 1.83.01
#
DISCID=8411801c
DTITLE=Various Artist - Red River Valley Disc 2
DYEAR=1999
DGENRE=Country
TTITLE0=Pam Gadd - Cotton Eyed Joe 
TTITLE1=Jennifer Weatherly - Life's A Railway To Heaven
TTITLE2=John Brack - The Wabash Cannonball
TTITLE3=George McCormick - Hey Good Lookin'
TTITLE4=Bobby Sykes - Oh Lonesome Me
TTITLE5=The Kendalls - Haven's Just A Sin Away
TTITLE6=Roger Miller - Chug-A-Lug
TTITLE7=Mel McDaniel - Stand Up
TTITLE8=Merle Haggard - The Fightin'Side Of Me
TTITLE9=Eddy Raven - I'm Gonna Get You
TTITLE10=Patsy Cline - I Don't Wanna
TTITLE11=The Cumberland Boys - Will The Circel Be Unbroken
TTITLE12=Merle Haggard - Working'Man Blues
TTITLE13=John Brack - Rollin'In My Sweet Babys Arms
TTITLE14=The Kendalls - I Had A Lovely Time 
TTITLE15=Billy Troy - Sittin' On The Top Of The World
TTITLE16=Dave Dudley - Last Day In The Mines
TTITLE17=Patsy Cline - Turn The Cards Slowly
TTITLE18=Merle Haggard - I Think I'll Just Stay Stay Here And Drink 
TTITLE19=Eddy Raven - You Should Have Been Gone By Now 
TTITLE20=The Nashville Pickers - Nine Pound Hammer 
TTITLE21=Gene Martin - Mule Skinner Blues
TTITLE22=Conway Twitty - The Games That Daddies Play 
TTITLE23=Roger Miller - You can't Rollerskate In A Buffalo Herd 
TTITLE24=Patsy Cline - Love Me Honey Do 
TTITLE25=David Houston - Baby,Baby (I Know You're A Lady)
TTITLE26=Billy Troy - Blue Tail Fly
TTITLE27=Roger Miller - Dang Me
EXTD=
EXTT0=
EXTT1=
EXTT2=
EXTT3=
EXTT4=
EXTT5=
EXTT6=
EXTT7=
EXTT8=
EXTT9=
EXTT10=
EXTT11=
EXTT12=
EXTT13=
EXTT14=
EXTT15=
EXTT16=
EXTT17=
EXTT18=
EXTT19=
EXTT20=
EXTT21=
EXTT22=
EXTT23=
EXTT24=
EXTT25=
EXTT26=
EXTT27=
PLAYORDER=
